{"title":"Senna.2010.1080p.x265.HEVC.MAjUS.Lektor.PL","uid":14083362,"size":3198108986,"categoryP":"video","categoryS":"hd___movies","magnet":"?xt=urn:btih:7e02ccdd8db9207458f187278a0be01792f03470&amp;dn=Senna.2010.1080p.x265.HEVC.MAjUS.Lektor.PL&amp;tr=udp%3A%2F%2Ftracker.leechers-paradise.org%3A6969&amp;tr=udp%3A%2F%2Fzer0day.ch%3A1337&amp;tr=udp%3A%2F%2Fopen.demonii.com%3A1337&amp;tr=udp%3A%2F%2Ftracker.coppersurfer.tk%3A6969&amp;tr=udp%3A%2F%2Fexodus.desync.com%3A6969","seeders":1,"leechers":0,"uploader":"MAjUS-HEVC","files":1,"time":1459238354,"description":"Only Polish language version\r\n\r\nFormat                      : Matroska\r\nFormat version              : Version 4 / Version 2\r\nFile size                   : 2.98 GiB\r\nDuration                    : 1h 45mn\r\nOverall bit rate            : 4 035 Kbps\r\nEncoded date                : UTC 2016-03-29 02:01:14\r\nWriting application         : mkvmerge v8.6.1 ('Flying') 32bit\r\nWriting library             : libebml v1.3.3 + libmatroska v1.4.4\r\n\r\nVideo\r\nID                          : 1\r\nFormat                      : HEVC\r\nFormat/Info                 : High Efficiency Video Coding\r\nFormat profile              :   @Main\r\nCodec ID                    : V_MPEGH/ISO/HEVC\r\nDuration                    : 1h 45mn\r\nBit rate                    : 3 976 Kbps\r\nWidth                       : 1 920 pixels\r\nHeight                      : 1 080 pixels\r\nDisplay aspect ratio        : 16:9\r\nFrame rate mode             : Constant\r\nFrame rate                  : 23.976 (24000/1001) fps\r\nOriginal frame rate         : 23.976 (23976/1000) fps\r\nColor space                 : YUV\r\nChroma subsampling          : 4:2:0\r\nBit depth                   : 8 bits\r\nBits/(Pixel*Frame)          : 0.080\r\nStream size                 : 2.94 GiB (99%)\r\n\r\n\r\nAudio\r\nID                          : 2\r\nFormat                      : AAC\r\nFormat/Info                 : Advanced Audio Codec\r\nFormat profile              : LC\r\nCodec ID                    : A_AAC\r\nDuration                    : 1h 45mn\r\nBit rate                    : 56.4 Kbps\r\nChannel(s)                  : 2 channels\r\nChannel positions           : Front: L R\r\nSampling rate               : 44.1 KHz\r\nFrame rate                  : 43.066 fps (1024 spf)\r\nCompression mode            : Lossy\r\nDelay relative to video     : 10ms\r\nStream size                 : 42.6 MiB (1%)\r\nDefault                     : Yes\r\nForced                      : No","torrent":{"xt":"urn:btih:7e02ccdd8db9207458f187278a0be01792f03470","amp;dn":"Senna.2010.1080p.x265.HEVC.MAjUS.Lektor.PL","amp;tr":["udp%3A%2F%2Ftracker.leechers-paradise.org%3A6969","udp%3A%2F%2Fzer0day.ch%3A1337","udp%3A%2F%2Fopen.demonii.com%3A1337","udp%3A%2F%2Ftracker.coppersurfer.tk%3A6969","udp%3A%2F%2Fexodus.desync.com%3A6969"],"infoHash":"7e02ccdd8db9207458f187278a0be01792f03470","infoHashBuffer":{"type":"Buffer","data":[126,2,204,221,141,185,32,116,88,241,135,39,138,11,224,23,146,240,52,112]},"announce":[],"urlList":[]}}